# xmcd
#
# Track frame offsets:
#	150
#	17329
#	36871
#	60821
#	76769
#	97082
#	112952
#	129743
#	150225
#	172043
#	190368
#
# Disc length: 2842 seconds
#
# Revision: 1
# Processed by: cddbd v1.5.2PL0 Copyright (c) Steve Scherf et al.
# Submitted via: audiograbber 1.83.01
#
DISCID=7b0b180b
DTITLE=Annie Lennox - Songs of mass Destrucion
DYEAR=2007
DGENRE=Pop
TTITLE0=Annie Lennox - Dark Road
TTITLE1=Annie Lennox - Love is Blind
TTITLE2=Annie Lennox - Smithereens
TTITLE3=Annie Lennox - Ghosts in my Machine
TTITLE4=Annie Lennox - Womankind
TTITLE5=Annie Lennox - Through the glass Darkly
TTITLE6=Annie Lennox - Lost
TTITLE7=Annie Lennox - Coloured Bedspread
TTITLE8=Annie Lennox - Sing
TTITLE9=Annie Lennox - Big Sky
TTITLE10=Annie Lennox - Fingernail Moon
EXTD=
EXTT0=
EXTT1=
EXTT2=
EXTT3=
EXTT4=
EXTT5=
EXTT6=
EXTT7=
EXTT8=
EXTT9=
EXTT10=
PLAYORDER=
